<?xml version="1.0" standalone="no"?>
<!DOCTYPE svg PUBLIC "-//W3C//DTD SVG 20010904//EN"
 "http://www.w3.org/TR/2001/REC-SVG-20010904/DTD/svg10.dtd">
<svg version="1.0" xmlns="http://www.w3.org/2000/svg"
 width="130.000000pt" height="130.000000pt" viewBox="0 0 130.000000 130.000000"
 preserveAspectRatio="xMidYMid meet">
<metadata>
Created by potrace 1.11, written by Peter Selinger 2001-2013
</metadata>
<g transform="translate(0.000000,130.000000) scale(0.100000,-0.100000)"
fill="#000000" stroke="none">
<path d="M499 1148 c-73 -77 -142 -149 -153 -159 -10 -9 -17 -22 -15 -28 4
-11 45 26 104 92 14 15 25 26 25 22 0 -3 20 15 45 41 25 25 43 50 40 55 -4 5
2 12 12 15 10 4 32 22 48 41 l31 34 26 -23 c23 -20 78 -64 98 -78 4 -3 10 -15
14 -27 4 -11 13 -24 21 -27 37 -14 4 28 -96 122 l-65 61 -135 -141z m-19 -42
c0 -3 -4 -8 -10 -11 -5 -3 -10 -1 -10 4 0 6 5 11 10 11 6 0 10 -2 10 -4z"/>
<path d="M832 1080 c7 -11 19 -22 28 -25 8 -4 4 5 -9 19 -29 31 -36 33 -19 6z"/>
<path d="M881 1017 c2 -1 13 -9 24 -17 19 -14 19 -14 6 3 -7 9 -18 17 -24 17
-6 0 -8 -1 -6 -3z"/>
<path d="M285 927 c-11 -12 -55 -54 -98 -93 -42 -39 -77 -74 -77 -78 0 -3 -18
-22 -40 -42 -22 -20 -40 -41 -40 -46 0 -12 89 -114 154 -176 27 -26 113 -110
191 -187 78 -77 148 -144 154 -150 6 -5 33 -33 60 -62 l49 -52 296 296 c267
268 346 354 269 293 -34 -26 -238 -227 -382 -374 -57 -58 -107 -106 -112 -106
-4 0 -10 -8 -13 -18 -3 -9 -18 -25 -33 -34 l-27 -16 -255 255 c-140 140 -272
270 -294 289 l-38 35 28 32 c35 39 85 89 179 178 63 59 77 79 55 79 -3 0 -15
-10 -26 -23z"/>
<path d="M629 938 c0 -2 -2 -23 -3 -48 -4 -83 -144 -314 -215 -356 -17 -10
-30 -23 -28 -29 2 -5 1 -19 -4 -31 -4 -11 -3 -27 2 -35 7 -12 11 -12 24 2 14
14 23 14 96 -2 44 -9 86 -20 94 -23 8 -3 15 -1 15 4 0 6 -3 10 -7 11 -46 4
-123 35 -123 48 0 10 96 54 120 56 11 1 29 10 40 20 11 10 20 13 20 7 0 -7 13
-10 38 -6 l37 5 23 -61 c13 -33 21 -64 18 -69 -3 -4 -21 -7 -41 -6 -19 1 -35
-1 -35 -5 0 -3 -9 -6 -20 -6 -11 0 -20 3 -20 6 0 3 -9 6 -20 6 -11 0 -20 -4
-20 -8 0 -4 1 -8 3 -8 1 0 39 -6 84 -14 45 -7 87 -10 94 -5 10 6 8 23 -8 81
-25 94 -21 106 37 104 25 -1 53 -6 64 -10 16 -8 17 -7 8 11 -17 30 -56 53
-102 57 -48 4 -49 5 -54 42 -2 16 -8 54 -14 84 -6 30 -14 72 -17 93 -6 37 -47
87 -72 87 -7 0 -13 -1 -14 -2z m31 -144 c0 -8 -5 -12 -10 -9 -6 4 -8 11 -5 16
9 14 15 11 15 -7z m49 -154 c1 -11 -22 -21 -79 -36 -44 -11 -80 -18 -80 -16 0
2 23 29 51 60 28 31 56 67 62 80 11 23 12 22 28 -24 10 -27 18 -56 18 -64z"/>
</g>
</svg>
